<svg width="679" height="679" viewBox="0 0 679 679" fill="none" xmlns="http://www.w3.org/2000/svg">
<g opacity="0.3">
<path d="M627.5 0.00292969L627.5 679" stroke="#EFF4F8" stroke-width="0.6"/>
<path d="M531.5 0.00292969L531.5 679" stroke="#EFF4F8" stroke-width="0.6"/>
<path d="M435.5 0.00292969L435.5 679" stroke="#EFF4F8" stroke-width="0.6"/>
<path d="M339.501 0.00292969L339.501 679" stroke="#EFF4F8" stroke-width="0.6"/>
<path d="M243.501 0.00292969L243.501 679" stroke="#EFF4F8" stroke-width="0.6"/>
<path d="M147.502 0.00292969L147.502 679" stroke="#EFF4F8" stroke-width="0.6"/>
<path d="M51.502 0.00292969L51.502 679" stroke="#EFF4F8" stroke-width="0.6"/>
</g>
<g opacity="0.3">
<path d="M678.998 627.499L5.8651e-05 627.499" stroke="#EFF4F8" stroke-width="0.6"/>
<path d="M678.998 531.5L5.8651e-05 531.5" stroke="#EFF4F8" stroke-width="0.6"/>
<path d="M678.998 435.501L5.8651e-05 435.501" stroke="#EFF4F8" stroke-width="0.6"/>
<path d="M678.998 339.501L5.8651e-05 339.501" stroke="#EFF4F8" stroke-width="0.6"/>
<path d="M678.998 243.501L5.8651e-05 243.501" stroke="#EFF4F8" stroke-width="0.6"/>
<path d="M678.998 147.502L5.8651e-05 147.502" stroke="#EFF4F8" stroke-width="0.6"/>
<path d="M678.998 51.502L5.8651e-05 51.5019" stroke="#EFF4F8" stroke-width="0.6"/>
</g>
<rect opacity="0.1" x="242.998" y="338.986" width="95" height="95" transform="rotate(180 242.998 338.986)" fill="#EFF4F8"/>
<rect opacity="0.1" x="627" y="243" width="95" height="95" transform="rotate(180 627 243)" fill="#EFF4F8"/>
<rect opacity="0.1" x="434.998" y="626.986" width="95" height="95" transform="rotate(180 434.998 626.986)" fill="#EFF4F8"/>
</svg>
