<svg width="679" height="679" viewBox="0 0 679 679" fill="none" xmlns="http://www.w3.org/2000/svg">
<g opacity="0.3">
<path d="M627.5 0L627.5 678.997" stroke="#919497" stroke-width="0.6"/>
<path d="M531.5 0L531.5 678.997" stroke="#919497" stroke-width="0.6"/>
<path d="M435.5 0L435.5 678.997" stroke="#919497" stroke-width="0.6"/>
<path d="M339.501 0L339.501 678.997" stroke="#919497" stroke-width="0.6"/>
<path d="M243.501 0L243.501 678.997" stroke="#919497" stroke-width="0.6"/>
<path d="M147.501 0L147.501 678.997" stroke="#919497" stroke-width="0.6"/>
<path d="M51.5017 0L51.5017 678.997" stroke="#919497" stroke-width="0.6"/>
</g>
<g opacity="0.3">
<path d="M678.998 627.496L5.8651e-05 627.496" stroke="#919497" stroke-width="0.6"/>
<path d="M678.998 531.497L5.8651e-05 531.497" stroke="#919497" stroke-width="0.6"/>
<path d="M678.998 435.498L5.8651e-05 435.498" stroke="#919497" stroke-width="0.6"/>
<path d="M678.998 339.498L5.8651e-05 339.498" stroke="#919497" stroke-width="0.6"/>
<path d="M678.998 243.498L5.8651e-05 243.498" stroke="#919497" stroke-width="0.6"/>
<path d="M678.998 147.499L5.8651e-05 147.499" stroke="#919497" stroke-width="0.6"/>
<path d="M678.998 51.499L5.8651e-05 51.499" stroke="#919497" stroke-width="0.6"/>
</g>
<rect opacity="0.1" x="242.998" y="338.983" width="95" height="95" transform="rotate(180 242.998 338.983)" fill="#919497"/>
<rect opacity="0.1" x="627" y="242.997" width="95" height="95" transform="rotate(180 627 242.997)" fill="#919497"/>
<rect opacity="0.1" x="434.998" y="626.983" width="95" height="95" transform="rotate(180 434.998 626.983)" fill="#919497"/>
</svg>
