<svg width="44" height="44" viewBox="0 0 44 44" fill="none" xmlns="http://www.w3.org/2000/svg">
<path d="M36 31.1983V12.8017C35.9986 12.5247 35.9278 12.253 35.7948 12.014C35.6618 11.7751 35.4712 11.5772 35.2424 11.4404L19.7207 2.20322C19.5015 2.07009 19.253 2 19 2C18.747 2 18.4985 2.07009 18.2793 2.20322L2.75761 11.4404C2.52876 11.5772 2.33822 11.7751 2.20521 12.014C2.07219 12.253 2.00141 12.5247 2 12.8017V31.1983C2.00141 31.4753 2.07219 31.747 2.20521 31.986C2.33822 32.2249 2.52876 32.4228 2.75761 32.5596L18.2793 41.7968C18.4985 41.9299 18.747 42 19 42C19.253 42 19.5015 41.9299 19.7207 41.7968L35.2424 32.5596C35.4712 32.4228 35.6618 32.2249 35.7948 31.986C35.9278 31.747 35.9986 31.4753 36 31.1983V31.1983Z" stroke="#247BFE" stroke-width="2.5" stroke-linecap="round" stroke-linejoin="round"/>
<path d="M19 29C22.866 29 26 25.866 26 22C26 18.134 22.866 15 19 15C15.134 15 12 18.134 12 22C12 25.866 15.134 29 19 29Z" stroke="#247BFE" stroke-width="2.5" stroke-linecap="round" stroke-linejoin="round"/>
</svg>
