<svg width="50" height="47" viewBox="0 0 50 47" fill="none" xmlns="http://www.w3.org/2000/svg">
<path d="M25 45C25 45 2 31.6364 2 15.4091C2 12.5404 2.95794 9.76035 4.71083 7.54188C6.46372 5.32341 8.90328 3.80359 11.6145 3.241C14.3256 2.6784 17.1409 3.10779 19.5813 4.4561C22.0218 5.80442 23.9366 7.98837 25 10.6364V10.6364C26.0634 7.98837 27.9782 5.80442 30.4187 4.4561C32.8591 3.10779 35.6744 2.6784 38.3856 3.241C41.0967 3.80359 43.5363 5.32341 45.2892 7.54188C47.0421 9.76035 48 12.5404 48 15.4091C48 31.6364 25 45 25 45Z" stroke="#247BFE" stroke-width="2.5" stroke-linecap="round" stroke-linejoin="round"/>
</svg>
