<svg width="44" height="44" viewBox="0 0 44 44" fill="none" xmlns="http://www.w3.org/2000/svg">
<path d="M40.9255 10.1333C42.0182 12.6846 42.2856 15.5138 41.6905 18.2247C41.0953 20.9356 39.6673 23.3925 37.6064 25.2515C35.5454 27.1104 32.9548 28.2784 30.197 28.5918C27.4393 28.9052 24.6526 28.3484 22.2271 26.9993L10.5458 40.5338C9.60699 41.4726 8.33369 42 7.00601 42C5.67834 42 4.40504 41.4726 3.46623 40.5338C2.52742 39.595 2 38.3217 2 36.994C2 35.6663 2.52742 34.393 3.46623 33.4542L17.0007 21.7729C15.6516 19.3474 15.0948 16.5607 15.4082 13.803C15.7216 11.0452 16.8896 8.45457 18.7485 6.39364C20.6075 4.3327 23.0644 2.90469 25.7753 2.30952C28.4862 1.71436 31.3154 1.98183 33.8667 3.07451L25.1214 11.799L26.3083 17.6917L32.201 18.8786L40.9255 10.1333Z" stroke="#247BFE" stroke-width="2.5" stroke-linecap="round" stroke-linejoin="round"/>
</svg>
